<svg width="48" height="48" viewBox="0 0 48 48" fill="none" xmlns="http://www.w3.org/2000/svg">
<path fill-rule="evenodd" clip-rule="evenodd" d="M17.4853 30.5148C16.8996 29.929 15.9498 29.929 15.364 30.5148L3.07544 42.8034L3.07544 34.5C3.07544 33.6716 2.40387 33 1.57544 33C0.747015 33 0.0754395 33.6716 0.0754405 34.5L0.0754395 46.4247C0.0754395 47.2531 0.747015 47.9247 1.57544 47.9247L13.4999 47.9247C14.3284 47.9247 14.9999 47.2531 14.9999 46.4247C14.9999 45.5962 14.3284 44.9247 13.4999 44.9247L5.19676 44.9247L17.4853 32.6361C18.0711 32.0503 18.0711 31.1006 17.4853 30.5148Z" fill="black"/>
<path fill-rule="evenodd" clip-rule="evenodd" d="M30.5148 17.4852C31.1006 18.071 32.0503 18.071 32.6361 17.4852L44.9247 5.19664L44.9247 13.5C44.9247 14.3284 45.5963 15 46.4247 15C47.2531 15 47.9247 14.3284 47.9247 13.5L47.9247 1.57532C47.9247 0.746893 47.2531 0.0753174 46.4247 0.0753174L34.5002 0.0753269C33.6718 0.0753269 33.0002 0.746901 33.0002 1.57533C33.0002 2.40376 33.6718 3.07533 34.5002 3.07533L42.8034 3.07532L30.5148 15.3639C29.929 15.9497 29.929 16.8994 30.5148 17.4852Z" fill="black"/>
</svg>
