<svg width="48" height="48" viewBox="0 0 48 48" fill="none" xmlns="http://www.w3.org/2000/svg">
<path fill-rule="evenodd" clip-rule="evenodd" d="M22.9393 0.43934C23.5251 -0.146447 24.4749 -0.146447 25.0607 0.43934L31.0607 6.43934C31.6464 7.02513 31.6464 7.97487 31.0607 8.56066C30.4749 9.14645 29.5251 9.14645 28.9393 8.56066L25.5 5.12132L25.5 16.5C25.5 17.3284 24.8284 18 24 18C23.1716 18 22.5 17.3284 22.5 16.5L22.5 5.12132L19.0607 8.56066C18.4749 9.14645 17.5251 9.14645 16.9393 8.56066C16.3536 7.97487 16.3536 7.02513 16.9393 6.43934L22.9393 0.43934ZM24 30C24.8284 30 25.5 30.6716 25.5 31.5L25.5 42.8787L28.9393 39.4393C29.5251 38.8536 30.4749 38.8536 31.0607 39.4393C31.6464 40.0251 31.6464 40.9749 31.0607 41.5607L25.0607 47.5607C24.4749 48.1464 23.5251 48.1464 22.9393 47.5607L16.9393 41.5607C16.3536 40.9749 16.3536 40.0251 16.9393 39.4393C17.5251 38.8536 18.4749 38.8536 19.0607 39.4393L22.5 42.8787L22.5 31.5C22.5 30.6716 23.1716 30 24 30Z" fill="black"/>
<path fill-rule="evenodd" clip-rule="evenodd" d="M0.43934 25.0607C-0.146447 24.4749 -0.146447 23.5251 0.43934 22.9393L6.43934 16.9393C7.02513 16.3536 7.97487 16.3536 8.56066 16.9393C9.14645 17.5251 9.14645 18.4749 8.56066 19.0607L5.12132 22.5L16.5 22.5C17.3284 22.5 18 23.1716 18 24C18 24.8284 17.3284 25.5 16.5 25.5L5.12132 25.5L8.56066 28.9393C9.14645 29.5251 9.14645 30.4749 8.56066 31.0607C7.97487 31.6464 7.02513 31.6464 6.43934 31.0607L0.43934 25.0607ZM30 24C30 23.1716 30.6716 22.5 31.5 22.5L42.8787 22.5L39.4393 19.0607C38.8536 18.4749 38.8536 17.5251 39.4393 16.9393C40.0251 16.3536 40.9749 16.3536 41.5607 16.9393L47.5607 22.9393C48.1464 23.5251 48.1464 24.4749 47.5607 25.0607L41.5607 31.0607C40.9749 31.6464 40.0251 31.6464 39.4393 31.0607C38.8536 30.4749 38.8536 29.5251 39.4393 28.9393L42.8787 25.5L31.5 25.5C30.6716 25.5 30 24.8284 30 24Z" fill="black"/>
</svg>
