<svg width="48" height="48" viewBox="0 0 48 48" fill="none" xmlns="http://www.w3.org/2000/svg">
<path fill-rule="evenodd" clip-rule="evenodd" d="M24 9.00001C32.2843 9.00001 39 15.7157 39 24C39 32.2843 32.2843 39 24 39C15.7157 39 9 32.2843 9 24C9 21.7637 9.4884 19.6456 10.3629 17.743C10.7089 16.9903 10.3792 16.0996 9.62647 15.7536C8.87375 15.4076 7.98307 15.7374 7.63708 16.4901C6.58558 18.7777 6 21.3225 6 24C6 33.9411 14.0589 42 24 42C33.9411 42 42 33.9411 42 24C42 14.0589 33.9411 6.00001 24 6.00001V9.00001Z" fill="black"/>
<path d="M24 13.3987V1.60129C24 0.965409 23.2584 0.618041 22.7699 1.02512L15.6914 6.92384C15.3316 7.22369 15.3316 7.77633 15.6914 8.07617L22.7699 13.9749C23.2584 14.382 24 14.0346 24 13.3987Z" fill="black"/>
</svg>
