<svg width="48" height="48" viewBox="0 0 48 48" fill="none" xmlns="http://www.w3.org/2000/svg">
<path d="M20.25 3C21.4926 3 22.5 4.00736 22.5 5.25V24C22.5 24.8284 23.1716 25.5 24 25.5C24.8284 25.5 25.5 24.8284 25.5 24V16.4002C25.5844 16.3962 25.6709 16.3925 25.7591 16.389C26.7083 16.3521 27.6689 16.3635 28.2058 16.4709C28.6088 16.5515 29.0873 16.7578 29.5514 17.0158C29.7802 17.143 30 17.4576 30 17.9576V24C30 24.8284 30.6716 25.5 31.5 25.5C32.3284 25.5 33 24.8284 33 24V19.304C33.1025 19.2938 33.2085 19.2843 33.3171 19.2758C34.265 19.2021 35.0689 19.2431 35.4429 19.3927C35.7967 19.5342 36.3404 20.0157 36.8993 20.6829C37.143 20.9738 37.3507 21.2523 37.5 21.4621V25.5C37.5 26.3284 38.1716 27 39 27C39.8284 27 40.5 26.3284 40.5 25.5V22.5H41.5275C43.3024 22.5 44.6893 24.0325 44.5126 25.7985L43.6981 33.9444C43.5933 34.9918 43.2693 36.0053 42.7471 36.9192L38.5614 44.2442C38.2943 44.7116 37.7973 45 37.259 45H18.3541C17.7859 45 17.2665 44.679 17.0124 44.1708L13.3159 36.7777L5.78241 24.2219C5.35677 23.5125 5.56334 22.5939 6.25169 22.135C6.86639 21.7252 7.68488 21.8062 8.20728 22.3286L15.4393 29.5607C15.8683 29.9897 16.5135 30.118 17.074 29.8858C17.6345 29.6536 18 29.1067 18 28.5V5.25C18 4.00736 19.0073 3 20.25 3ZM25.5 13.3972V5.25C25.5 2.35051 23.1495 0 20.25 0C17.3505 0 15 2.35051 15 5.25V24.8787L10.3286 20.2073C8.79501 18.6737 6.39215 18.4358 4.58759 19.6388C2.56681 20.986 1.96039 23.6828 3.20993 25.7654L10.6841 38.2223L14.3292 45.5125C15.0914 47.037 16.6496 48 18.3541 48H37.259C38.8739 48 40.3649 47.1347 41.1661 45.7326L45.3518 38.4076C46.0829 37.1282 46.5365 35.7092 46.6832 34.2429L47.4978 26.097C47.851 22.5649 45.0773 19.5 41.5275 19.5H39.7829C39.6214 19.2811 39.4237 19.0246 39.199 18.7564C38.6241 18.0701 37.6678 17.0516 36.5571 16.6073C35.4666 16.1711 34.0205 16.2121 33.0846 16.2848C32.9477 16.2955 32.8147 16.3075 32.6868 16.3204C32.3766 15.5476 31.8284 14.8492 31.0091 14.3938C30.4245 14.0688 29.6343 13.6972 28.7942 13.5291C27.8666 13.3436 26.5772 13.355 25.6425 13.3913C25.5945 13.3932 25.547 13.3951 25.5 13.3972ZM31.7832 19.473C31.783 19.4731 31.783 19.4731 31.7832 19.473V19.473Z" fill="black"/>
</svg>
